<mxfile host="app.diagrams.net" modified="2023-06-09T04:29:59.029Z" agent="Mozilla/5.0 (Macintosh; Intel Mac OS X 10.15; rv:109.0) Gecko/20100101 Firefox/113.0" etag="5VYDPjKJeJ4X30D_zEDs" version="21.3.3" type="github">
  <diagram id="R2lEEEUBdFMjLlhIrx00" name="Page-1">
    <mxGraphModel dx="1158" dy="778" grid="1" gridSize="10" guides="1" tooltips="1" connect="1" arrows="1" fold="1" page="1" pageScale="1" pageWidth="1654" pageHeight="1169" math="0" shadow="0" extFonts="Permanent Marker^https://fonts.googleapis.com/css?family=Permanent+Marker">
      <root>
        <mxCell id="0" />
        <mxCell id="1" parent="0" />
        <mxCell id="6bvUMzhNfChqPh5dB9FW-6" style="edgeStyle=orthogonalEdgeStyle;rounded=0;orthogonalLoop=1;jettySize=auto;html=1;exitX=0.5;exitY=0;exitDx=0;exitDy=0;entryX=0.5;entryY=1;entryDx=0;entryDy=0;endArrow=none;endFill=0;" edge="1" parent="1" source="6bvUMzhNfChqPh5dB9FW-1" target="6bvUMzhNfChqPh5dB9FW-5">
          <mxGeometry relative="1" as="geometry" />
        </mxCell>
        <mxCell id="6bvUMzhNfChqPh5dB9FW-22" style="edgeStyle=orthogonalEdgeStyle;rounded=0;orthogonalLoop=1;jettySize=auto;html=1;exitX=0;exitY=0.5;exitDx=0;exitDy=0;entryX=1;entryY=0.5;entryDx=0;entryDy=0;endArrow=none;endFill=0;" edge="1" parent="1" source="6bvUMzhNfChqPh5dB9FW-1" target="6bvUMzhNfChqPh5dB9FW-15">
          <mxGeometry relative="1" as="geometry" />
        </mxCell>
        <mxCell id="6bvUMzhNfChqPh5dB9FW-24" style="edgeStyle=orthogonalEdgeStyle;rounded=0;orthogonalLoop=1;jettySize=auto;html=1;exitX=0;exitY=0.25;exitDx=0;exitDy=0;entryX=0.5;entryY=1;entryDx=0;entryDy=0;endArrow=none;endFill=0;" edge="1" parent="1" source="6bvUMzhNfChqPh5dB9FW-1" target="6bvUMzhNfChqPh5dB9FW-14">
          <mxGeometry relative="1" as="geometry">
            <Array as="points">
              <mxPoint x="660" y="585" />
              <mxPoint x="660" y="540" />
              <mxPoint x="496" y="540" />
              <mxPoint x="496" y="520" />
            </Array>
          </mxGeometry>
        </mxCell>
        <mxCell id="6bvUMzhNfChqPh5dB9FW-26" style="edgeStyle=orthogonalEdgeStyle;rounded=0;orthogonalLoop=1;jettySize=auto;html=1;entryX=0.5;entryY=0;entryDx=0;entryDy=0;endArrow=none;endFill=0;" edge="1" parent="1" source="6bvUMzhNfChqPh5dB9FW-1" target="6bvUMzhNfChqPh5dB9FW-16">
          <mxGeometry relative="1" as="geometry" />
        </mxCell>
        <mxCell id="6bvUMzhNfChqPh5dB9FW-28" style="edgeStyle=orthogonalEdgeStyle;rounded=0;orthogonalLoop=1;jettySize=auto;html=1;exitX=0.25;exitY=1;exitDx=0;exitDy=0;entryX=0.5;entryY=0;entryDx=0;entryDy=0;endArrow=none;endFill=0;" edge="1" parent="1" source="6bvUMzhNfChqPh5dB9FW-1" target="6bvUMzhNfChqPh5dB9FW-21">
          <mxGeometry relative="1" as="geometry" />
        </mxCell>
        <mxCell id="6bvUMzhNfChqPh5dB9FW-32" value="" style="edgeStyle=orthogonalEdgeStyle;rounded=0;orthogonalLoop=1;jettySize=auto;html=1;entryX=0;entryY=0.5;entryDx=0;entryDy=0;exitX=0.75;exitY=1;exitDx=0;exitDy=0;endArrow=none;endFill=0;" edge="1" parent="1" source="6bvUMzhNfChqPh5dB9FW-1" target="6bvUMzhNfChqPh5dB9FW-18">
          <mxGeometry relative="1" as="geometry">
            <mxPoint x="900" y="600" as="targetPoint" />
            <Array as="points">
              <mxPoint x="770" y="670" />
              <mxPoint x="850" y="670" />
              <mxPoint x="850" y="725" />
            </Array>
          </mxGeometry>
        </mxCell>
        <mxCell id="6bvUMzhNfChqPh5dB9FW-1" value="USER" style="rounded=0;whiteSpace=wrap;html=1;" vertex="1" parent="1">
          <mxGeometry x="680" y="570" width="120" height="60" as="geometry" />
        </mxCell>
        <mxCell id="6bvUMzhNfChqPh5dB9FW-35" value="" style="edgeStyle=orthogonalEdgeStyle;rounded=0;orthogonalLoop=1;jettySize=auto;html=1;entryX=0;entryY=0.5;entryDx=0;entryDy=0;endArrow=none;endFill=0;" edge="1" parent="1" source="6bvUMzhNfChqPh5dB9FW-2" target="6bvUMzhNfChqPh5dB9FW-17">
          <mxGeometry relative="1" as="geometry">
            <mxPoint x="740" y="240" as="targetPoint" />
          </mxGeometry>
        </mxCell>
        <mxCell id="6bvUMzhNfChqPh5dB9FW-2" value="EXPERIENCE" style="rounded=0;whiteSpace=wrap;html=1;" vertex="1" parent="1">
          <mxGeometry x="680" y="320" width="120" height="60" as="geometry" />
        </mxCell>
        <mxCell id="6bvUMzhNfChqPh5dB9FW-7" style="edgeStyle=orthogonalEdgeStyle;rounded=0;orthogonalLoop=1;jettySize=auto;html=1;exitX=0.5;exitY=0;exitDx=0;exitDy=0;entryX=0.5;entryY=1;entryDx=0;entryDy=0;endArrow=none;endFill=0;" edge="1" parent="1" source="6bvUMzhNfChqPh5dB9FW-5" target="6bvUMzhNfChqPh5dB9FW-2">
          <mxGeometry relative="1" as="geometry" />
        </mxCell>
        <mxCell id="6bvUMzhNfChqPh5dB9FW-5" value="&lt;font style=&quot;font-size: 8px;&quot;&gt;has&lt;/font&gt;" style="rhombus;whiteSpace=wrap;html=1;" vertex="1" parent="1">
          <mxGeometry x="683.75" y="430" width="112.5" height="70" as="geometry" />
        </mxCell>
        <mxCell id="6bvUMzhNfChqPh5dB9FW-89" style="edgeStyle=orthogonalEdgeStyle;rounded=0;orthogonalLoop=1;jettySize=auto;html=1;exitX=1;exitY=0.75;exitDx=0;exitDy=0;entryX=0;entryY=0.5;entryDx=0;entryDy=0;endArrow=none;endFill=0;" edge="1" parent="1" source="6bvUMzhNfChqPh5dB9FW-9" target="6bvUMzhNfChqPh5dB9FW-86">
          <mxGeometry relative="1" as="geometry" />
        </mxCell>
        <mxCell id="6bvUMzhNfChqPh5dB9FW-90" style="edgeStyle=orthogonalEdgeStyle;rounded=0;orthogonalLoop=1;jettySize=auto;html=1;exitX=1;exitY=0.25;exitDx=0;exitDy=0;entryX=0;entryY=0.5;entryDx=0;entryDy=0;endArrow=none;endFill=0;" edge="1" parent="1" source="6bvUMzhNfChqPh5dB9FW-9" target="6bvUMzhNfChqPh5dB9FW-85">
          <mxGeometry relative="1" as="geometry" />
        </mxCell>
        <mxCell id="6bvUMzhNfChqPh5dB9FW-9" value="FOLLOWER" style="rounded=0;whiteSpace=wrap;html=1;" vertex="1" parent="1">
          <mxGeometry x="1050" y="780" width="120" height="60" as="geometry" />
        </mxCell>
        <mxCell id="6bvUMzhNfChqPh5dB9FW-94" value="" style="edgeStyle=orthogonalEdgeStyle;rounded=0;orthogonalLoop=1;jettySize=auto;html=1;entryX=0.5;entryY=0;entryDx=0;entryDy=0;endArrow=none;endFill=0;" edge="1" parent="1" source="6bvUMzhNfChqPh5dB9FW-10" target="6bvUMzhNfChqPh5dB9FW-93">
          <mxGeometry relative="1" as="geometry">
            <Array as="points">
              <mxPoint x="1200" y="380" />
              <mxPoint x="1135" y="380" />
            </Array>
          </mxGeometry>
        </mxCell>
        <mxCell id="6bvUMzhNfChqPh5dB9FW-101" value="" style="edgeStyle=orthogonalEdgeStyle;rounded=0;orthogonalLoop=1;jettySize=auto;html=1;endArrow=none;endFill=0;" edge="1" parent="1" source="6bvUMzhNfChqPh5dB9FW-10" target="6bvUMzhNfChqPh5dB9FW-100">
          <mxGeometry relative="1" as="geometry" />
        </mxCell>
        <mxCell id="6bvUMzhNfChqPh5dB9FW-10" value="COMPANY" style="rounded=0;whiteSpace=wrap;html=1;" vertex="1" parent="1">
          <mxGeometry x="1180" y="180" width="120" height="60" as="geometry" />
        </mxCell>
        <mxCell id="6bvUMzhNfChqPh5dB9FW-11" value="INSTITUTION" style="rounded=0;whiteSpace=wrap;html=1;" vertex="1" parent="1">
          <mxGeometry x="680" y="820" width="120" height="60" as="geometry" />
        </mxCell>
        <mxCell id="6bvUMzhNfChqPh5dB9FW-12" value="SKILL" style="rounded=0;whiteSpace=wrap;html=1;" vertex="1" parent="1">
          <mxGeometry x="240" y="570" width="120" height="60" as="geometry" />
        </mxCell>
        <mxCell id="6bvUMzhNfChqPh5dB9FW-153" value="" style="edgeStyle=orthogonalEdgeStyle;rounded=0;orthogonalLoop=1;jettySize=auto;html=1;endArrow=none;endFill=0;" edge="1" parent="1" source="6bvUMzhNfChqPh5dB9FW-13">
          <mxGeometry relative="1" as="geometry">
            <mxPoint x="380" y="950" as="targetPoint" />
          </mxGeometry>
        </mxCell>
        <mxCell id="6bvUMzhNfChqPh5dB9FW-13" value="GROUP" style="rounded=0;whiteSpace=wrap;html=1;" vertex="1" parent="1">
          <mxGeometry x="320" y="850" width="120" height="60" as="geometry" />
        </mxCell>
        <mxCell id="6bvUMzhNfChqPh5dB9FW-25" style="edgeStyle=orthogonalEdgeStyle;rounded=0;orthogonalLoop=1;jettySize=auto;html=1;endArrow=none;endFill=0;exitX=0.5;exitY=0;exitDx=0;exitDy=0;entryX=0.5;entryY=1;entryDx=0;entryDy=0;" edge="1" parent="1" source="6bvUMzhNfChqPh5dB9FW-14" target="6bvUMzhNfChqPh5dB9FW-145">
          <mxGeometry relative="1" as="geometry">
            <mxPoint x="530" y="400" as="targetPoint" />
            <Array as="points">
              <mxPoint x="496" y="395" />
            </Array>
          </mxGeometry>
        </mxCell>
        <mxCell id="6bvUMzhNfChqPh5dB9FW-14" value="has" style="rhombus;whiteSpace=wrap;html=1;" vertex="1" parent="1">
          <mxGeometry x="440" y="450" width="112.5" height="70" as="geometry" />
        </mxCell>
        <mxCell id="6bvUMzhNfChqPh5dB9FW-23" style="edgeStyle=orthogonalEdgeStyle;rounded=0;orthogonalLoop=1;jettySize=auto;html=1;exitX=0;exitY=0.5;exitDx=0;exitDy=0;entryX=1;entryY=0.5;entryDx=0;entryDy=0;endArrow=none;endFill=0;" edge="1" parent="1" source="6bvUMzhNfChqPh5dB9FW-15" target="6bvUMzhNfChqPh5dB9FW-12">
          <mxGeometry relative="1" as="geometry" />
        </mxCell>
        <mxCell id="6bvUMzhNfChqPh5dB9FW-15" value="&lt;font style=&quot;font-size: 9px;&quot;&gt;has&lt;br&gt;&lt;/font&gt;" style="rhombus;whiteSpace=wrap;html=1;" vertex="1" parent="1">
          <mxGeometry x="470" y="565" width="112.5" height="70" as="geometry" />
        </mxCell>
        <mxCell id="6bvUMzhNfChqPh5dB9FW-27" style="edgeStyle=orthogonalEdgeStyle;rounded=0;orthogonalLoop=1;jettySize=auto;html=1;entryX=0.5;entryY=0;entryDx=0;entryDy=0;endArrow=none;endFill=0;" edge="1" parent="1" source="6bvUMzhNfChqPh5dB9FW-16" target="6bvUMzhNfChqPh5dB9FW-11">
          <mxGeometry relative="1" as="geometry" />
        </mxCell>
        <mxCell id="6bvUMzhNfChqPh5dB9FW-16" value="studied at" style="rhombus;whiteSpace=wrap;html=1;" vertex="1" parent="1">
          <mxGeometry x="683.75" y="710" width="112.5" height="70" as="geometry" />
        </mxCell>
        <mxCell id="6bvUMzhNfChqPh5dB9FW-37" value="" style="edgeStyle=orthogonalEdgeStyle;rounded=0;orthogonalLoop=1;jettySize=auto;html=1;entryX=0;entryY=0.5;entryDx=0;entryDy=0;endArrow=none;endFill=0;" edge="1" parent="1" source="6bvUMzhNfChqPh5dB9FW-17" target="6bvUMzhNfChqPh5dB9FW-10">
          <mxGeometry relative="1" as="geometry">
            <mxPoint x="1128.75" y="245" as="targetPoint" />
          </mxGeometry>
        </mxCell>
        <mxCell id="6bvUMzhNfChqPh5dB9FW-17" value="at" style="rhombus;whiteSpace=wrap;html=1;" vertex="1" parent="1">
          <mxGeometry x="920" y="210" width="112.5" height="70" as="geometry" />
        </mxCell>
        <mxCell id="6bvUMzhNfChqPh5dB9FW-33" value="" style="edgeStyle=orthogonalEdgeStyle;rounded=0;orthogonalLoop=1;jettySize=auto;html=1;" edge="1" parent="1" source="6bvUMzhNfChqPh5dB9FW-18" target="6bvUMzhNfChqPh5dB9FW-9">
          <mxGeometry relative="1" as="geometry" />
        </mxCell>
        <mxCell id="6bvUMzhNfChqPh5dB9FW-18" value="&lt;font style=&quot;font-size: 9px;&quot;&gt;has &lt;br&gt;&lt;/font&gt;" style="rhombus;whiteSpace=wrap;html=1;" vertex="1" parent="1">
          <mxGeometry x="850" y="740" width="112.5" height="70" as="geometry" />
        </mxCell>
        <mxCell id="6bvUMzhNfChqPh5dB9FW-29" style="edgeStyle=orthogonalEdgeStyle;rounded=0;orthogonalLoop=1;jettySize=auto;html=1;entryX=0.5;entryY=0;entryDx=0;entryDy=0;endArrow=none;endFill=0;" edge="1" parent="1" source="6bvUMzhNfChqPh5dB9FW-21" target="6bvUMzhNfChqPh5dB9FW-13">
          <mxGeometry relative="1" as="geometry" />
        </mxCell>
        <mxCell id="6bvUMzhNfChqPh5dB9FW-21" value="has" style="rhombus;whiteSpace=wrap;html=1;" vertex="1" parent="1">
          <mxGeometry x="470" y="720" width="112.5" height="70" as="geometry" />
        </mxCell>
        <mxCell id="6bvUMzhNfChqPh5dB9FW-42" style="edgeStyle=orthogonalEdgeStyle;rounded=0;orthogonalLoop=1;jettySize=auto;html=1;exitX=0;exitY=0.5;exitDx=0;exitDy=0;endArrow=none;endFill=0;" edge="1" parent="1" source="6bvUMzhNfChqPh5dB9FW-38">
          <mxGeometry relative="1" as="geometry">
            <mxPoint x="750" y="570" as="targetPoint" />
            <Array as="points">
              <mxPoint x="860" y="395" />
              <mxPoint x="860" y="520" />
              <mxPoint x="750" y="520" />
              <mxPoint x="750" y="570" />
            </Array>
          </mxGeometry>
        </mxCell>
        <mxCell id="6bvUMzhNfChqPh5dB9FW-38" value="User_id" style="ellipse;whiteSpace=wrap;html=1;" vertex="1" parent="1">
          <mxGeometry x="890" y="380" width="90" height="30" as="geometry" />
        </mxCell>
        <mxCell id="6bvUMzhNfChqPh5dB9FW-39" value="email" style="ellipse;whiteSpace=wrap;html=1;" vertex="1" parent="1">
          <mxGeometry x="910" y="420" width="90" height="40" as="geometry" />
        </mxCell>
        <mxCell id="6bvUMzhNfChqPh5dB9FW-54" value="" style="edgeStyle=orthogonalEdgeStyle;rounded=0;orthogonalLoop=1;jettySize=auto;html=1;entryX=1;entryY=0.25;entryDx=0;entryDy=0;endArrow=none;endFill=0;" edge="1" parent="1" source="6bvUMzhNfChqPh5dB9FW-40" target="6bvUMzhNfChqPh5dB9FW-1">
          <mxGeometry relative="1" as="geometry">
            <mxPoint x="855" y="489.9999999999998" as="targetPoint" />
            <Array as="points">
              <mxPoint x="880" y="490" />
              <mxPoint x="880" y="585" />
            </Array>
          </mxGeometry>
        </mxCell>
        <mxCell id="6bvUMzhNfChqPh5dB9FW-40" value="first_name" style="ellipse;whiteSpace=wrap;html=1;" vertex="1" parent="1">
          <mxGeometry x="920" y="470" width="90" height="40" as="geometry" />
        </mxCell>
        <mxCell id="6bvUMzhNfChqPh5dB9FW-52" value="" style="edgeStyle=orthogonalEdgeStyle;rounded=0;orthogonalLoop=1;jettySize=auto;html=1;entryX=1;entryY=0.5;entryDx=0;entryDy=0;endArrow=none;endFill=0;" edge="1" parent="1" source="6bvUMzhNfChqPh5dB9FW-41" target="6bvUMzhNfChqPh5dB9FW-1">
          <mxGeometry relative="1" as="geometry">
            <mxPoint x="835" y="539.9999999999998" as="targetPoint" />
            <Array as="points">
              <mxPoint x="890" y="540" />
              <mxPoint x="890" y="600" />
            </Array>
          </mxGeometry>
        </mxCell>
        <mxCell id="6bvUMzhNfChqPh5dB9FW-41" value="last_name" style="ellipse;whiteSpace=wrap;html=1;" vertex="1" parent="1">
          <mxGeometry x="920" y="520" width="90" height="40" as="geometry" />
        </mxCell>
        <mxCell id="6bvUMzhNfChqPh5dB9FW-43" style="edgeStyle=orthogonalEdgeStyle;rounded=0;orthogonalLoop=1;jettySize=auto;html=1;exitX=0;exitY=0.5;exitDx=0;exitDy=0;endArrow=none;endFill=0;entryX=0.75;entryY=0;entryDx=0;entryDy=0;" edge="1" parent="1" source="6bvUMzhNfChqPh5dB9FW-39" target="6bvUMzhNfChqPh5dB9FW-1">
          <mxGeometry relative="1" as="geometry">
            <mxPoint x="760" y="580" as="targetPoint" />
            <mxPoint x="900" y="405" as="sourcePoint" />
            <Array as="points">
              <mxPoint x="870" y="440" />
              <mxPoint x="870" y="530" />
              <mxPoint x="770" y="530" />
            </Array>
          </mxGeometry>
        </mxCell>
        <mxCell id="6bvUMzhNfChqPh5dB9FW-50" value="" style="edgeStyle=orthogonalEdgeStyle;rounded=0;orthogonalLoop=1;jettySize=auto;html=1;entryX=1;entryY=0.75;entryDx=0;entryDy=0;endArrow=none;endFill=0;" edge="1" parent="1" source="6bvUMzhNfChqPh5dB9FW-44" target="6bvUMzhNfChqPh5dB9FW-1">
          <mxGeometry relative="1" as="geometry">
            <mxPoint x="855" y="590.0000000000002" as="targetPoint" />
            <Array as="points">
              <mxPoint x="900" y="590" />
              <mxPoint x="900" y="615" />
            </Array>
          </mxGeometry>
        </mxCell>
        <mxCell id="6bvUMzhNfChqPh5dB9FW-44" value="password" style="ellipse;whiteSpace=wrap;html=1;" vertex="1" parent="1">
          <mxGeometry x="920" y="570" width="90" height="40" as="geometry" />
        </mxCell>
        <mxCell id="6bvUMzhNfChqPh5dB9FW-47" style="edgeStyle=orthogonalEdgeStyle;rounded=0;orthogonalLoop=1;jettySize=auto;html=1;exitX=0;exitY=0.5;exitDx=0;exitDy=0;entryX=1;entryY=1;entryDx=0;entryDy=0;endArrow=none;endFill=0;" edge="1" parent="1" source="6bvUMzhNfChqPh5dB9FW-45" target="6bvUMzhNfChqPh5dB9FW-1">
          <mxGeometry relative="1" as="geometry" />
        </mxCell>
        <mxCell id="6bvUMzhNfChqPh5dB9FW-45" value="website" style="ellipse;whiteSpace=wrap;html=1;" vertex="1" parent="1">
          <mxGeometry x="900" y="630" width="90" height="40" as="geometry" />
        </mxCell>
        <mxCell id="6bvUMzhNfChqPh5dB9FW-61" style="edgeStyle=orthogonalEdgeStyle;rounded=0;orthogonalLoop=1;jettySize=auto;html=1;exitX=0.5;exitY=1;exitDx=0;exitDy=0;endArrow=none;endFill=0;" edge="1" parent="1" source="6bvUMzhNfChqPh5dB9FW-55" target="6bvUMzhNfChqPh5dB9FW-2">
          <mxGeometry relative="1" as="geometry" />
        </mxCell>
        <mxCell id="6bvUMzhNfChqPh5dB9FW-55" value="Experience_id" style="ellipse;whiteSpace=wrap;html=1;" vertex="1" parent="1">
          <mxGeometry x="695" y="180" width="90" height="30" as="geometry" />
        </mxCell>
        <mxCell id="6bvUMzhNfChqPh5dB9FW-60" style="edgeStyle=orthogonalEdgeStyle;rounded=0;orthogonalLoop=1;jettySize=auto;html=1;exitX=1;exitY=1;exitDx=0;exitDy=0;entryX=0.25;entryY=0;entryDx=0;entryDy=0;endArrow=none;endFill=0;" edge="1" parent="1" source="6bvUMzhNfChqPh5dB9FW-56" target="6bvUMzhNfChqPh5dB9FW-2">
          <mxGeometry relative="1" as="geometry">
            <Array as="points">
              <mxPoint x="710" y="236" />
            </Array>
          </mxGeometry>
        </mxCell>
        <mxCell id="6bvUMzhNfChqPh5dB9FW-56" value="start_date" style="ellipse;whiteSpace=wrap;html=1;" vertex="1" parent="1">
          <mxGeometry x="600" y="210" width="90" height="30" as="geometry" />
        </mxCell>
        <mxCell id="6bvUMzhNfChqPh5dB9FW-59" style="edgeStyle=orthogonalEdgeStyle;rounded=0;orthogonalLoop=1;jettySize=auto;html=1;exitX=1;exitY=1;exitDx=0;exitDy=0;entryX=0;entryY=0;entryDx=0;entryDy=0;endArrow=none;endFill=0;" edge="1" parent="1" source="6bvUMzhNfChqPh5dB9FW-57" target="6bvUMzhNfChqPh5dB9FW-2">
          <mxGeometry relative="1" as="geometry" />
        </mxCell>
        <mxCell id="6bvUMzhNfChqPh5dB9FW-57" value="end_date" style="ellipse;whiteSpace=wrap;html=1;" vertex="1" parent="1">
          <mxGeometry x="570" y="250" width="90" height="30" as="geometry" />
        </mxCell>
        <mxCell id="6bvUMzhNfChqPh5dB9FW-62" style="edgeStyle=orthogonalEdgeStyle;rounded=0;orthogonalLoop=1;jettySize=auto;html=1;exitX=0;exitY=1;exitDx=0;exitDy=0;entryX=0.75;entryY=0;entryDx=0;entryDy=0;endArrow=none;endFill=0;" edge="1" parent="1" source="6bvUMzhNfChqPh5dB9FW-58" target="6bvUMzhNfChqPh5dB9FW-2">
          <mxGeometry relative="1" as="geometry" />
        </mxCell>
        <mxCell id="6bvUMzhNfChqPh5dB9FW-58" value="position" style="ellipse;whiteSpace=wrap;html=1;" vertex="1" parent="1">
          <mxGeometry x="760" y="220" width="90" height="30" as="geometry" />
        </mxCell>
        <mxCell id="6bvUMzhNfChqPh5dB9FW-65" style="edgeStyle=orthogonalEdgeStyle;rounded=0;orthogonalLoop=1;jettySize=auto;html=1;exitX=1;exitY=0.5;exitDx=0;exitDy=0;entryX=0;entryY=0.25;entryDx=0;entryDy=0;endArrow=none;endFill=0;" edge="1" parent="1" source="6bvUMzhNfChqPh5dB9FW-63" target="6bvUMzhNfChqPh5dB9FW-12">
          <mxGeometry relative="1" as="geometry" />
        </mxCell>
        <mxCell id="6bvUMzhNfChqPh5dB9FW-63" value="Skill_id" style="ellipse;whiteSpace=wrap;html=1;" vertex="1" parent="1">
          <mxGeometry x="40" y="540" width="90" height="30" as="geometry" />
        </mxCell>
        <mxCell id="6bvUMzhNfChqPh5dB9FW-66" style="edgeStyle=orthogonalEdgeStyle;rounded=0;orthogonalLoop=1;jettySize=auto;html=1;exitX=1;exitY=0.5;exitDx=0;exitDy=0;entryX=0;entryY=0.75;entryDx=0;entryDy=0;endArrow=none;endFill=0;" edge="1" parent="1" source="6bvUMzhNfChqPh5dB9FW-64" target="6bvUMzhNfChqPh5dB9FW-12">
          <mxGeometry relative="1" as="geometry" />
        </mxCell>
        <mxCell id="6bvUMzhNfChqPh5dB9FW-64" value="skill_name" style="ellipse;whiteSpace=wrap;html=1;" vertex="1" parent="1">
          <mxGeometry x="40" y="627" width="90" height="30" as="geometry" />
        </mxCell>
        <mxCell id="6bvUMzhNfChqPh5dB9FW-71" style="edgeStyle=orthogonalEdgeStyle;rounded=0;orthogonalLoop=1;jettySize=auto;html=1;exitX=1;exitY=0.5;exitDx=0;exitDy=0;endArrow=none;endFill=0;" edge="1" parent="1" source="6bvUMzhNfChqPh5dB9FW-67" target="6bvUMzhNfChqPh5dB9FW-13">
          <mxGeometry relative="1" as="geometry" />
        </mxCell>
        <mxCell id="6bvUMzhNfChqPh5dB9FW-67" value="group_name" style="ellipse;whiteSpace=wrap;html=1;" vertex="1" parent="1">
          <mxGeometry x="90" y="865" width="90" height="30" as="geometry" />
        </mxCell>
        <mxCell id="6bvUMzhNfChqPh5dB9FW-70" style="edgeStyle=orthogonalEdgeStyle;rounded=0;orthogonalLoop=1;jettySize=auto;html=1;exitX=1;exitY=0.5;exitDx=0;exitDy=0;entryX=0;entryY=0.25;entryDx=0;entryDy=0;endArrow=none;endFill=0;" edge="1" parent="1" source="6bvUMzhNfChqPh5dB9FW-69" target="6bvUMzhNfChqPh5dB9FW-13">
          <mxGeometry relative="1" as="geometry" />
        </mxCell>
        <mxCell id="6bvUMzhNfChqPh5dB9FW-69" value="Group_id" style="ellipse;whiteSpace=wrap;html=1;" vertex="1" parent="1">
          <mxGeometry x="90" y="820" width="90" height="30" as="geometry" />
        </mxCell>
        <mxCell id="6bvUMzhNfChqPh5dB9FW-79" style="edgeStyle=orthogonalEdgeStyle;rounded=0;orthogonalLoop=1;jettySize=auto;html=1;exitX=0.5;exitY=0;exitDx=0;exitDy=0;entryX=0;entryY=0.5;entryDx=0;entryDy=0;endArrow=none;endFill=0;" edge="1" parent="1" source="6bvUMzhNfChqPh5dB9FW-73" target="6bvUMzhNfChqPh5dB9FW-11">
          <mxGeometry relative="1" as="geometry" />
        </mxCell>
        <mxCell id="6bvUMzhNfChqPh5dB9FW-73" value="Insitution_id" style="ellipse;whiteSpace=wrap;html=1;" vertex="1" parent="1">
          <mxGeometry x="510" y="910" width="90" height="30" as="geometry" />
        </mxCell>
        <mxCell id="6bvUMzhNfChqPh5dB9FW-80" style="edgeStyle=orthogonalEdgeStyle;rounded=0;orthogonalLoop=1;jettySize=auto;html=1;exitX=1;exitY=0;exitDx=0;exitDy=0;entryX=0;entryY=0.75;entryDx=0;entryDy=0;endArrow=none;endFill=0;" edge="1" parent="1" source="6bvUMzhNfChqPh5dB9FW-74" target="6bvUMzhNfChqPh5dB9FW-11">
          <mxGeometry relative="1" as="geometry">
            <Array as="points">
              <mxPoint x="637" y="865" />
            </Array>
          </mxGeometry>
        </mxCell>
        <mxCell id="6bvUMzhNfChqPh5dB9FW-74" value="insitution_name" style="ellipse;whiteSpace=wrap;html=1;" vertex="1" parent="1">
          <mxGeometry x="560" y="960" width="90" height="30" as="geometry" />
        </mxCell>
        <mxCell id="6bvUMzhNfChqPh5dB9FW-81" style="edgeStyle=orthogonalEdgeStyle;rounded=0;orthogonalLoop=1;jettySize=auto;html=1;exitX=0.5;exitY=0;exitDx=0;exitDy=0;entryX=0.25;entryY=1;entryDx=0;entryDy=0;endArrow=none;endFill=0;" edge="1" parent="1" source="6bvUMzhNfChqPh5dB9FW-75" target="6bvUMzhNfChqPh5dB9FW-11">
          <mxGeometry relative="1" as="geometry" />
        </mxCell>
        <mxCell id="6bvUMzhNfChqPh5dB9FW-75" value="start_date" style="ellipse;whiteSpace=wrap;html=1;" vertex="1" parent="1">
          <mxGeometry x="630" y="1000" width="90" height="30" as="geometry" />
        </mxCell>
        <mxCell id="6bvUMzhNfChqPh5dB9FW-82" style="edgeStyle=orthogonalEdgeStyle;rounded=0;orthogonalLoop=1;jettySize=auto;html=1;exitX=0.5;exitY=0;exitDx=0;exitDy=0;entryX=0.75;entryY=1;entryDx=0;entryDy=0;endArrow=none;endFill=0;" edge="1" parent="1" source="6bvUMzhNfChqPh5dB9FW-76" target="6bvUMzhNfChqPh5dB9FW-11">
          <mxGeometry relative="1" as="geometry" />
        </mxCell>
        <mxCell id="6bvUMzhNfChqPh5dB9FW-76" value="end_date" style="ellipse;whiteSpace=wrap;html=1;" vertex="1" parent="1">
          <mxGeometry x="740" y="1000" width="90" height="30" as="geometry" />
        </mxCell>
        <mxCell id="6bvUMzhNfChqPh5dB9FW-83" style="edgeStyle=orthogonalEdgeStyle;rounded=0;orthogonalLoop=1;jettySize=auto;html=1;exitX=0;exitY=0;exitDx=0;exitDy=0;entryX=1;entryY=0.75;entryDx=0;entryDy=0;endArrow=none;endFill=0;" edge="1" parent="1" source="6bvUMzhNfChqPh5dB9FW-77" target="6bvUMzhNfChqPh5dB9FW-11">
          <mxGeometry relative="1" as="geometry">
            <Array as="points">
              <mxPoint x="843" y="865" />
            </Array>
          </mxGeometry>
        </mxCell>
        <mxCell id="6bvUMzhNfChqPh5dB9FW-77" value="degree" style="ellipse;whiteSpace=wrap;html=1;" vertex="1" parent="1">
          <mxGeometry x="830" y="960" width="90" height="30" as="geometry" />
        </mxCell>
        <mxCell id="6bvUMzhNfChqPh5dB9FW-84" style="edgeStyle=orthogonalEdgeStyle;rounded=0;orthogonalLoop=1;jettySize=auto;html=1;exitX=0.5;exitY=0;exitDx=0;exitDy=0;entryX=1;entryY=0.5;entryDx=0;entryDy=0;endArrow=none;endFill=0;" edge="1" parent="1" source="6bvUMzhNfChqPh5dB9FW-78" target="6bvUMzhNfChqPh5dB9FW-11">
          <mxGeometry relative="1" as="geometry" />
        </mxCell>
        <mxCell id="6bvUMzhNfChqPh5dB9FW-78" value="field_of_study" style="ellipse;whiteSpace=wrap;html=1;" vertex="1" parent="1">
          <mxGeometry x="870" y="920" width="90" height="30" as="geometry" />
        </mxCell>
        <mxCell id="6bvUMzhNfChqPh5dB9FW-85" value="Follower_id" style="ellipse;whiteSpace=wrap;html=1;" vertex="1" parent="1">
          <mxGeometry x="1240" y="750" width="90" height="30" as="geometry" />
        </mxCell>
        <mxCell id="6bvUMzhNfChqPh5dB9FW-86" value="follower_name" style="ellipse;whiteSpace=wrap;html=1;" vertex="1" parent="1">
          <mxGeometry x="1240" y="835" width="90" height="30" as="geometry" />
        </mxCell>
        <mxCell id="6bvUMzhNfChqPh5dB9FW-110" style="edgeStyle=orthogonalEdgeStyle;rounded=0;orthogonalLoop=1;jettySize=auto;html=1;exitX=0.5;exitY=1;exitDx=0;exitDy=0;entryX=0.25;entryY=0;entryDx=0;entryDy=0;endArrow=none;endFill=0;" edge="1" parent="1" source="6bvUMzhNfChqPh5dB9FW-91" target="6bvUMzhNfChqPh5dB9FW-10">
          <mxGeometry relative="1" as="geometry" />
        </mxCell>
        <mxCell id="6bvUMzhNfChqPh5dB9FW-91" value="Company_id" style="ellipse;whiteSpace=wrap;html=1;" vertex="1" parent="1">
          <mxGeometry x="1140" y="80" width="90" height="30" as="geometry" />
        </mxCell>
        <mxCell id="6bvUMzhNfChqPh5dB9FW-111" style="edgeStyle=orthogonalEdgeStyle;rounded=0;orthogonalLoop=1;jettySize=auto;html=1;exitX=0.5;exitY=1;exitDx=0;exitDy=0;entryX=0.75;entryY=0;entryDx=0;entryDy=0;endArrow=none;endFill=0;" edge="1" parent="1" source="6bvUMzhNfChqPh5dB9FW-92" target="6bvUMzhNfChqPh5dB9FW-10">
          <mxGeometry relative="1" as="geometry" />
        </mxCell>
        <mxCell id="6bvUMzhNfChqPh5dB9FW-92" value="company_name" style="ellipse;whiteSpace=wrap;html=1;" vertex="1" parent="1">
          <mxGeometry x="1260" y="80" width="90" height="30" as="geometry" />
        </mxCell>
        <mxCell id="6bvUMzhNfChqPh5dB9FW-95" style="edgeStyle=orthogonalEdgeStyle;rounded=0;orthogonalLoop=1;jettySize=auto;html=1;exitX=0.5;exitY=1;exitDx=0;exitDy=0;endArrow=none;endFill=0;" edge="1" parent="1" source="6bvUMzhNfChqPh5dB9FW-93" target="6bvUMzhNfChqPh5dB9FW-9">
          <mxGeometry relative="1" as="geometry" />
        </mxCell>
        <mxCell id="6bvUMzhNfChqPh5dB9FW-93" value="has" style="rhombus;whiteSpace=wrap;html=1;rounded=0;" vertex="1" parent="1">
          <mxGeometry x="1100" y="540" width="70" height="60" as="geometry" />
        </mxCell>
        <mxCell id="6bvUMzhNfChqPh5dB9FW-107" style="edgeStyle=orthogonalEdgeStyle;rounded=0;orthogonalLoop=1;jettySize=auto;html=1;exitX=1;exitY=0.25;exitDx=0;exitDy=0;entryX=0;entryY=0.5;entryDx=0;entryDy=0;endArrow=none;endFill=0;" edge="1" parent="1" source="6bvUMzhNfChqPh5dB9FW-96" target="6bvUMzhNfChqPh5dB9FW-97">
          <mxGeometry relative="1" as="geometry" />
        </mxCell>
        <mxCell id="6bvUMzhNfChqPh5dB9FW-108" style="edgeStyle=orthogonalEdgeStyle;rounded=0;orthogonalLoop=1;jettySize=auto;html=1;exitX=1;exitY=0.5;exitDx=0;exitDy=0;endArrow=none;endFill=0;" edge="1" parent="1" source="6bvUMzhNfChqPh5dB9FW-96" target="6bvUMzhNfChqPh5dB9FW-106">
          <mxGeometry relative="1" as="geometry" />
        </mxCell>
        <mxCell id="6bvUMzhNfChqPh5dB9FW-109" style="edgeStyle=orthogonalEdgeStyle;rounded=0;orthogonalLoop=1;jettySize=auto;html=1;exitX=1;exitY=0.75;exitDx=0;exitDy=0;entryX=0;entryY=0.5;entryDx=0;entryDy=0;endArrow=none;endFill=0;" edge="1" parent="1" source="6bvUMzhNfChqPh5dB9FW-96" target="6bvUMzhNfChqPh5dB9FW-98">
          <mxGeometry relative="1" as="geometry" />
        </mxCell>
        <mxCell id="6bvUMzhNfChqPh5dB9FW-96" value="JOB LISTING" style="rounded=0;whiteSpace=wrap;html=1;" vertex="1" parent="1">
          <mxGeometry x="1330" y="525" width="120" height="60" as="geometry" />
        </mxCell>
        <mxCell id="6bvUMzhNfChqPh5dB9FW-97" value="Job_id" style="ellipse;whiteSpace=wrap;html=1;" vertex="1" parent="1">
          <mxGeometry x="1540" y="495" width="90" height="30" as="geometry" />
        </mxCell>
        <mxCell id="6bvUMzhNfChqPh5dB9FW-98" value="closing_date" style="ellipse;whiteSpace=wrap;html=1;" vertex="1" parent="1">
          <mxGeometry x="1540" y="585" width="90" height="30" as="geometry" />
        </mxCell>
        <mxCell id="6bvUMzhNfChqPh5dB9FW-102" style="edgeStyle=orthogonalEdgeStyle;rounded=0;orthogonalLoop=1;jettySize=auto;html=1;exitX=0.5;exitY=1;exitDx=0;exitDy=0;entryX=0.5;entryY=0;entryDx=0;entryDy=0;endArrow=none;endFill=0;" edge="1" parent="1" source="6bvUMzhNfChqPh5dB9FW-100" target="6bvUMzhNfChqPh5dB9FW-96">
          <mxGeometry relative="1" as="geometry" />
        </mxCell>
        <mxCell id="6bvUMzhNfChqPh5dB9FW-100" value="has" style="rhombus;whiteSpace=wrap;html=1;rounded=0;" vertex="1" parent="1">
          <mxGeometry x="1350" y="385" width="80" height="80" as="geometry" />
        </mxCell>
        <mxCell id="6bvUMzhNfChqPh5dB9FW-106" value="job_name" style="ellipse;whiteSpace=wrap;html=1;" vertex="1" parent="1">
          <mxGeometry x="1540" y="540" width="90" height="30" as="geometry" />
        </mxCell>
        <mxCell id="6bvUMzhNfChqPh5dB9FW-117" value="M" style="text;strokeColor=none;fillColor=none;align=left;verticalAlign=middle;spacingLeft=4;spacingRight=4;overflow=hidden;points=[[0,0.5],[1,0.5]];portConstraint=eastwest;rotatable=0;whiteSpace=wrap;html=1;" vertex="1" parent="1">
          <mxGeometry x="440" y="570" width="20" height="30" as="geometry" />
        </mxCell>
        <mxCell id="6bvUMzhNfChqPh5dB9FW-119" value="M" style="text;strokeColor=none;fillColor=none;align=left;verticalAlign=middle;spacingLeft=4;spacingRight=4;overflow=hidden;points=[[0,0.5],[1,0.5]];portConstraint=eastwest;rotatable=0;whiteSpace=wrap;html=1;" vertex="1" parent="1">
          <mxGeometry x="582.5" y="570" width="20" height="30" as="geometry" />
        </mxCell>
        <mxCell id="6bvUMzhNfChqPh5dB9FW-125" value="M" style="text;strokeColor=none;fillColor=none;align=left;verticalAlign=middle;spacingLeft=4;spacingRight=4;overflow=hidden;points=[[0,0.5],[1,0.5]];portConstraint=eastwest;rotatable=0;whiteSpace=wrap;html=1;" vertex="1" parent="1">
          <mxGeometry x="500" y="515" width="20" height="30" as="geometry" />
        </mxCell>
        <mxCell id="6bvUMzhNfChqPh5dB9FW-126" value="M" style="text;strokeColor=none;fillColor=none;align=left;verticalAlign=middle;spacingLeft=4;spacingRight=4;overflow=hidden;points=[[0,0.5],[1,0.5]];portConstraint=eastwest;rotatable=0;whiteSpace=wrap;html=1;" vertex="1" parent="1">
          <mxGeometry x="470" y="425" width="20" height="30" as="geometry" />
        </mxCell>
        <mxCell id="6bvUMzhNfChqPh5dB9FW-127" value="M" style="text;strokeColor=none;fillColor=none;align=left;verticalAlign=middle;spacingLeft=4;spacingRight=4;overflow=hidden;points=[[0,0.5],[1,0.5]];portConstraint=eastwest;rotatable=0;whiteSpace=wrap;html=1;" vertex="1" parent="1">
          <mxGeometry x="720" y="500" width="20" height="30" as="geometry" />
        </mxCell>
        <mxCell id="6bvUMzhNfChqPh5dB9FW-128" value="M" style="text;strokeColor=none;fillColor=none;align=left;verticalAlign=middle;spacingLeft=4;spacingRight=4;overflow=hidden;points=[[0,0.5],[1,0.5]];portConstraint=eastwest;rotatable=0;whiteSpace=wrap;html=1;" vertex="1" parent="1">
          <mxGeometry x="720" y="400" width="20" height="30" as="geometry" />
        </mxCell>
        <mxCell id="6bvUMzhNfChqPh5dB9FW-129" value="M" style="text;strokeColor=none;fillColor=none;align=left;verticalAlign=middle;spacingLeft=4;spacingRight=4;overflow=hidden;points=[[0,0.5],[1,0.5]];portConstraint=eastwest;rotatable=0;whiteSpace=wrap;html=1;" vertex="1" parent="1">
          <mxGeometry x="896.25" y="240" width="20" height="30" as="geometry" />
        </mxCell>
        <mxCell id="6bvUMzhNfChqPh5dB9FW-130" value="M" style="text;strokeColor=none;fillColor=none;align=left;verticalAlign=middle;spacingLeft=4;spacingRight=4;overflow=hidden;points=[[0,0.5],[1,0.5]];portConstraint=eastwest;rotatable=0;whiteSpace=wrap;html=1;" vertex="1" parent="1">
          <mxGeometry x="1040" y="240" width="20" height="30" as="geometry" />
        </mxCell>
        <mxCell id="6bvUMzhNfChqPh5dB9FW-131" value="M" style="text;strokeColor=none;fillColor=none;align=left;verticalAlign=middle;spacingLeft=4;spacingRight=4;overflow=hidden;points=[[0,0.5],[1,0.5]];portConstraint=eastwest;rotatable=0;whiteSpace=wrap;html=1;" vertex="1" parent="1">
          <mxGeometry x="1360" y="470" width="20" height="30" as="geometry" />
        </mxCell>
        <mxCell id="6bvUMzhNfChqPh5dB9FW-132" value="1" style="text;strokeColor=none;fillColor=none;align=left;verticalAlign=middle;spacingLeft=4;spacingRight=4;overflow=hidden;points=[[0,0.5],[1,0.5]];portConstraint=eastwest;rotatable=0;whiteSpace=wrap;html=1;" vertex="1" parent="1">
          <mxGeometry x="1370" y="350" width="20" height="30" as="geometry" />
        </mxCell>
        <mxCell id="6bvUMzhNfChqPh5dB9FW-134" value="M" style="text;strokeColor=none;fillColor=none;align=left;verticalAlign=middle;spacingLeft=4;spacingRight=4;overflow=hidden;points=[[0,0.5],[1,0.5]];portConstraint=eastwest;rotatable=0;whiteSpace=wrap;html=1;" vertex="1" parent="1">
          <mxGeometry x="1140" y="500" width="20" height="30" as="geometry" />
        </mxCell>
        <mxCell id="6bvUMzhNfChqPh5dB9FW-135" value="M" style="text;strokeColor=none;fillColor=none;align=left;verticalAlign=middle;spacingLeft=4;spacingRight=4;overflow=hidden;points=[[0,0.5],[1,0.5]];portConstraint=eastwest;rotatable=0;whiteSpace=wrap;html=1;" vertex="1" parent="1">
          <mxGeometry x="1140" y="605" width="20" height="30" as="geometry" />
        </mxCell>
        <mxCell id="6bvUMzhNfChqPh5dB9FW-136" value="M" style="text;strokeColor=none;fillColor=none;align=left;verticalAlign=middle;spacingLeft=4;spacingRight=4;overflow=hidden;points=[[0,0.5],[1,0.5]];portConstraint=eastwest;rotatable=0;whiteSpace=wrap;html=1;" vertex="1" parent="1">
          <mxGeometry x="710" y="680" width="20" height="30" as="geometry" />
        </mxCell>
        <mxCell id="6bvUMzhNfChqPh5dB9FW-137" value="M" style="text;strokeColor=none;fillColor=none;align=left;verticalAlign=middle;spacingLeft=4;spacingRight=4;overflow=hidden;points=[[0,0.5],[1,0.5]];portConstraint=eastwest;rotatable=0;whiteSpace=wrap;html=1;" vertex="1" parent="1">
          <mxGeometry x="710" y="780" width="20" height="30" as="geometry" />
        </mxCell>
        <mxCell id="6bvUMzhNfChqPh5dB9FW-138" value="M" style="text;strokeColor=none;fillColor=none;align=left;verticalAlign=middle;spacingLeft=4;spacingRight=4;overflow=hidden;points=[[0,0.5],[1,0.5]];portConstraint=eastwest;rotatable=0;whiteSpace=wrap;html=1;" vertex="1" parent="1">
          <mxGeometry x="530" y="690" width="20" height="30" as="geometry" />
        </mxCell>
        <mxCell id="6bvUMzhNfChqPh5dB9FW-139" value="M" style="text;strokeColor=none;fillColor=none;align=left;verticalAlign=middle;spacingLeft=4;spacingRight=4;overflow=hidden;points=[[0,0.5],[1,0.5]];portConstraint=eastwest;rotatable=0;whiteSpace=wrap;html=1;" vertex="1" parent="1">
          <mxGeometry x="440" y="760" width="20" height="30" as="geometry" />
        </mxCell>
        <mxCell id="6bvUMzhNfChqPh5dB9FW-140" value="M" style="text;strokeColor=none;fillColor=none;align=left;verticalAlign=middle;spacingLeft=4;spacingRight=4;overflow=hidden;points=[[0,0.5],[1,0.5]];portConstraint=eastwest;rotatable=0;whiteSpace=wrap;html=1;" vertex="1" parent="1">
          <mxGeometry x="966.25" y="770" width="20" height="30" as="geometry" />
        </mxCell>
        <mxCell id="6bvUMzhNfChqPh5dB9FW-141" value="M" style="text;strokeColor=none;fillColor=none;align=left;verticalAlign=middle;spacingLeft=4;spacingRight=4;overflow=hidden;points=[[0,0.5],[1,0.5]];portConstraint=eastwest;rotatable=0;whiteSpace=wrap;html=1;" vertex="1" parent="1">
          <mxGeometry x="858" y="720" width="20" height="30" as="geometry" />
        </mxCell>
        <mxCell id="6bvUMzhNfChqPh5dB9FW-142" value="LinkedIn Relational Model" style="text;strokeColor=none;fillColor=none;html=1;fontSize=24;fontStyle=1;verticalAlign=middle;align=center;" vertex="1" parent="1">
          <mxGeometry x="170" y="80" width="100" height="40" as="geometry" />
        </mxCell>
        <mxCell id="6bvUMzhNfChqPh5dB9FW-145" value="CONNECTION" style="rounded=0;whiteSpace=wrap;html=1;" vertex="1" parent="1">
          <mxGeometry x="430" y="335" width="120" height="60" as="geometry" />
        </mxCell>
        <mxCell id="6bvUMzhNfChqPh5dB9FW-150" style="edgeStyle=orthogonalEdgeStyle;rounded=0;orthogonalLoop=1;jettySize=auto;html=1;exitX=1;exitY=1;exitDx=0;exitDy=0;entryX=0;entryY=0.25;entryDx=0;entryDy=0;" edge="1" parent="1" source="6bvUMzhNfChqPh5dB9FW-146" target="6bvUMzhNfChqPh5dB9FW-145">
          <mxGeometry relative="1" as="geometry" />
        </mxCell>
        <mxCell id="6bvUMzhNfChqPh5dB9FW-146" value="Connection_id" style="ellipse;whiteSpace=wrap;html=1;" vertex="1" parent="1">
          <mxGeometry x="280" y="305" width="90" height="30" as="geometry" />
        </mxCell>
        <mxCell id="6bvUMzhNfChqPh5dB9FW-149" style="edgeStyle=orthogonalEdgeStyle;rounded=0;orthogonalLoop=1;jettySize=auto;html=1;exitX=1;exitY=0;exitDx=0;exitDy=0;entryX=0;entryY=0.75;entryDx=0;entryDy=0;" edge="1" parent="1" source="6bvUMzhNfChqPh5dB9FW-147" target="6bvUMzhNfChqPh5dB9FW-145">
          <mxGeometry relative="1" as="geometry" />
        </mxCell>
        <mxCell id="6bvUMzhNfChqPh5dB9FW-147" value="connection_name" style="ellipse;whiteSpace=wrap;html=1;" vertex="1" parent="1">
          <mxGeometry x="270" y="390" width="110" height="30" as="geometry" />
        </mxCell>
        <mxCell id="6bvUMzhNfChqPh5dB9FW-151" value="GROUP_MEMEBR" style="rounded=0;whiteSpace=wrap;html=1;" vertex="1" parent="1">
          <mxGeometry x="320" y="1030" width="120" height="60" as="geometry" />
        </mxCell>
        <mxCell id="6bvUMzhNfChqPh5dB9FW-154" style="edgeStyle=orthogonalEdgeStyle;rounded=0;orthogonalLoop=1;jettySize=auto;html=1;exitX=0.5;exitY=1;exitDx=0;exitDy=0;entryX=0.5;entryY=0;entryDx=0;entryDy=0;endArrow=none;endFill=0;" edge="1" parent="1" source="6bvUMzhNfChqPh5dB9FW-152" target="6bvUMzhNfChqPh5dB9FW-151">
          <mxGeometry relative="1" as="geometry" />
        </mxCell>
        <mxCell id="6bvUMzhNfChqPh5dB9FW-152" value="has" style="rhombus;whiteSpace=wrap;html=1;rounded=0;" vertex="1" parent="1">
          <mxGeometry x="340" y="950" width="80" height="40" as="geometry" />
        </mxCell>
        <mxCell id="6bvUMzhNfChqPh5dB9FW-155" value="M" style="text;strokeColor=none;fillColor=none;align=left;verticalAlign=middle;spacingLeft=4;spacingRight=4;overflow=hidden;points=[[0,0.5],[1,0.5]];portConstraint=eastwest;rotatable=0;whiteSpace=wrap;html=1;" vertex="1" parent="1">
          <mxGeometry x="380" y="990" width="20" height="30" as="geometry" />
        </mxCell>
        <mxCell id="6bvUMzhNfChqPh5dB9FW-156" value="1" style="text;strokeColor=none;fillColor=none;align=left;verticalAlign=middle;spacingLeft=4;spacingRight=4;overflow=hidden;points=[[0,0.5],[1,0.5]];portConstraint=eastwest;rotatable=0;whiteSpace=wrap;html=1;" vertex="1" parent="1">
          <mxGeometry x="380" y="920" width="20" height="30" as="geometry" />
        </mxCell>
        <mxCell id="6bvUMzhNfChqPh5dB9FW-160" style="edgeStyle=orthogonalEdgeStyle;rounded=0;orthogonalLoop=1;jettySize=auto;html=1;exitX=1;exitY=0.5;exitDx=0;exitDy=0;entryX=0;entryY=0.25;entryDx=0;entryDy=0;" edge="1" parent="1" source="6bvUMzhNfChqPh5dB9FW-157" target="6bvUMzhNfChqPh5dB9FW-151">
          <mxGeometry relative="1" as="geometry" />
        </mxCell>
        <mxCell id="6bvUMzhNfChqPh5dB9FW-157" value="member_id" style="ellipse;whiteSpace=wrap;html=1;" vertex="1" parent="1">
          <mxGeometry x="140" y="1000" width="110" height="30" as="geometry" />
        </mxCell>
        <mxCell id="6bvUMzhNfChqPh5dB9FW-161" style="edgeStyle=orthogonalEdgeStyle;rounded=0;orthogonalLoop=1;jettySize=auto;html=1;exitX=1;exitY=0.5;exitDx=0;exitDy=0;entryX=0;entryY=0.75;entryDx=0;entryDy=0;" edge="1" parent="1" source="6bvUMzhNfChqPh5dB9FW-158" target="6bvUMzhNfChqPh5dB9FW-151">
          <mxGeometry relative="1" as="geometry" />
        </mxCell>
        <mxCell id="6bvUMzhNfChqPh5dB9FW-158" value="member_name" style="ellipse;whiteSpace=wrap;html=1;" vertex="1" parent="1">
          <mxGeometry x="140" y="1045" width="120" height="30" as="geometry" />
        </mxCell>
      </root>
    </mxGraphModel>
  </diagram>
</mxfile>
